<svg width="32" height="32" viewBox="0 0 32 32" fill="none" xmlns="http://www.w3.org/2000/svg">
<path fill-rule="evenodd" clip-rule="evenodd" d="M8 14C11.3137 14 14 11.3137 14 8C14 4.68629 11.3137 2 8 2C4.68629 2 2 4.68629 2 8C2 11.3137 4.68629 14 8 14ZM8 16C12.4183 16 16 12.4183 16 8C16 3.58172 12.4183 0 8 0C3.58172 0 0 3.58172 0 8C0 12.4183 3.58172 16 8 16Z" fill="black"/>
<path fill-rule="evenodd" clip-rule="evenodd" d="M23 14C26.3137 14 29 11.3137 29 8C29 4.68629 26.3137 2 23 2C19.6863 2 17 4.68629 17 8C17 11.3137 19.6863 14 23 14ZM23 16C27.4183 16 31 12.4183 31 8C31 3.58172 27.4183 0 23 0C18.5817 0 15 3.58172 15 8C15 12.4183 18.5817 16 23 16Z" fill="black"/>
<path fill-rule="evenodd" clip-rule="evenodd" d="M19 30C25.0751 30 30 25.0751 30 19H32C32 26.1797 26.1797 32 19 32V30Z" fill="black"/>
</svg>
